Land_normalized_pl05_filtered_grf
version=1
nRows=20
nColumns=37
inDegrees=yes
endheader
time		1_ground_force_vx		1_ground_force_vy		1_ground_force_vz		1_ground_force_px		1_ground_force_py		1_ground_force_pz		1_ground_torque_x		1_ground_torque_y		1_ground_torque_z		2_ground_force_vx		2_ground_force_vy		2_ground_force_vz		2_ground_force_px		2_ground_force_py		2_ground_force_pz		2_ground_torque_x		2_ground_torque_y		2_ground_torque_z		3_ground_force_vx		3_ground_force_vy		3_ground_force_vz		3_ground_force_px		3_ground_force_py		3_ground_force_pz		3_ground_torque_x		3_ground_torque_y		3_ground_torque_z		4_ground_force_vx		4_ground_force_vy		4_ground_force_vz		4_ground_force_px		4_ground_force_py		4_ground_force_pz		4_ground_torque_x		4_ground_torque_y		4_ground_torque_z		
0.959500		-0.780979		-34.237789		-28.568686		0.141608		0.000000		0.174219		-0.003158		-0.138447		-0.115523		-0.064129		-31.962385		-16.060527		-0.216113		0.000000		0.206337		-0.002763		-1.376939		-0.691887		-0.151606		-0.267129		-1.336402		0.413287		1.262828		1.873668		0.031237		0.008456		0.028674		-1.845976		-1.517469		-2.242049		-0.353340		1.255902		1.900836		0.030588		-0.037843		0.035003		
0.962556		-0.003515		-46.868090		-37.208644		0.141205		0.000000		0.169131		-0.000017		-0.281987		-0.223863		-1.901006		-43.527968		-24.021254		-0.226895		0.000000		0.203079		-0.091891		-2.103630		-1.160928		-0.031952		-0.241369		-1.404171		0.413280		1.262850		1.873743		0.029622		0.002564		0.027885		-1.920874		-1.559853		-2.317264		-0.353350		1.255904		1.900919		0.031859		-0.036389		0.035159		
0.965611		1.093446		-53.178600		-40.752061		0.140943		0.000000		0.163497		0.008294		-0.402967		-0.308794		-3.985096		-49.189200		-29.619919		-0.237305		0.000000		0.200357		-0.208285		-2.570498		-1.547910		0.088177		-0.207115		-1.455087		0.413275		1.262866		1.873819		0.027902		-0.003888		0.027433		-1.957506		-1.608064		-2.400146		-0.353369		1.255903		1.901007		0.032824		-0.034454		0.035122		
0.968667		2.404267		-48.402844		-36.062600		0.140727		0.000000		0.153664		0.022089		-0.444275		-0.330998		-5.910086		-44.563480		-30.468668		-0.252813		0.000000		0.196550		-0.331541		-2.499346		-1.708961		0.194739		-0.164338		-1.487427		0.413272		1.262879		1.873892		0.026229		-0.010490		0.027296		-1.951575		-1.659560		-2.485467		-0.353393		1.255901		1.901099		0.033464		-0.032077		0.035094		
0.971722		3.736820		-27.722666		-20.305323		0.141701		0.000000		0.119368		0.038211		-0.284245		-0.208193		-7.109975		-25.241390		-24.098372		-0.296565		0.000000		0.183516		-0.403777		-1.435763		-1.369528		0.275906		-0.115258		-1.502665		0.413270		1.262887		1.873964		0.024789		-0.016792		0.027334		-1.902820		-1.711559		-2.568940		-0.353422		1.255900		1.901194		0.033812		-0.029329		0.035285		
0.974778		4.818759		12.992025		8.447177		0.181732		0.000000		0.319513		-0.301707		-0.677378		-0.435194		-6.899836		12.530593		-8.370167		-0.154445		0.000000		0.364941		0.693467		-1.214004		0.858975		0.324264		-0.063975		-1.504693		0.413269		1.262893		1.874033		0.023773		-0.022343		0.027332		-1.815186		-1.760860		-2.647578		-0.353454		1.255905		1.901290		0.033942		-0.026306		0.035849		
0.977833		5.322064		76.396609		50.608919		0.145190		0.000000		0.210540		0.013956		0.203676		0.134873		-4.550674		71.129366		18.055598		-0.179297		0.000000		0.218751		-0.098364		1.562794		0.399583		0.338214		-0.016039		-1.498669		0.413267		1.262896		1.874098		0.023325		-0.026722		0.027061		-1.696801		-1.803727		-2.719526		-0.353487		1.255915		1.901385		0.033945		-0.023108		0.036833		
0.980889		4.906898		162.999720		104.610516		0.143566		0.000000		0.196649		0.033379		1.110328		0.712546		0.605952		150.947202		55.276835		-0.199694		0.000000		0.211058		0.023582		5.810526		2.128193		0.322110		0.022202		-1.489797		0.413260		1.262897		1.874158		0.023514		-0.029590		0.026345		-1.559439		-1.836118		-2.783549		-0.353520		1.255933		1.901475		0.033905		-0.019823		0.038165		
0.983944		3.281658		270.790862		166.718504		0.143234		0.000000		0.191925		0.028994		2.393840		1.473789		9.055349		250.068552		101.841010		-0.208522		0.000000		0.208800		0.401214		11.077866		4.511559		0.285166		0.044737		-1.482326		0.413248		1.262897		1.874212		0.024310		-0.030758		0.025115		-1.417319		-1.854301		-2.838419		-0.353551		1.255959		1.901560		0.033885		-0.016523		0.039655		
0.987000		0.270847		395.329115		231.282742		0.143292		0.000000		0.190275		0.002826		4.124540		2.413015		20.978001		364.381354		154.683050		-0.213294		0.000000		0.208067		0.994970		17.282311		7.336491		0.239357		0.047380		-1.479099		0.413229		1.262897		1.874261		0.025590		-0.030238		0.023432		-1.285268		-1.855699		-2.882688		-0.353579		1.255991		1.901636		0.033905		-0.013267		0.041038		
0.990056		-4.126797		530.369369		291.455520		0.143592		0.000000		0.190282		-0.049361		6.341675		3.484875		36.159479		488.193839		209.388493		-0.215970		0.000000		0.208182		1.787454		24.132230		10.350418		0.196880		0.029084		-1.481545		0.413203		1.262897		1.874303		0.027157		-0.028262		0.021482		-1.176574		-1.839564		-2.915043		-0.353604		1.256027		1.901701		0.033946		-0.010115		0.042011		
0.993111		-9.688778		668.809069		340.472120		0.144114		0.000000		0.191456		-0.131195		9.054178		4.609009		53.909016		615.166574		260.821496		-0.217219		0.000000		0.208995		2.735320		31.212877		13.233770		0.167710		-0.007183		-1.489538		0.413171		1.262897		1.874337		0.028785		-0.025265		0.019530		-1.100620		-1.807581		-2.935200		-0.353626		1.256065		1.901753		0.033960		-0.007145		0.042305		
0.996167		-15.991204		803.856357		373.084267		0.144868		0.000000		0.193557		-0.243410		12.233913		5.677587		73.108755		739.489192		304.059687		-0.217301		0.000000		0.210515		3.761299		38.045061		15.643161		0.158062		-0.054956		-1.501336		0.413133		1.262898		1.874365		0.030261		-0.021792		0.017864		-1.061331		-1.763694		-2.944499		-0.353645		1.256103		1.901792		0.033896		-0.004459		0.041729		
0.999222		-22.461340		929.671400		386.817130		0.145848		0.000000		0.196384		-0.381687		15.796280		6.571963		92.309767		856.570717		335.314297		-0.216369		0.000000		0.212790		4.755623		44.128997		17.274831		0.170157		-0.105346		-1.513877		0.413093		1.262898		1.874385		0.031419		-0.018395		0.016729		-1.056261		-1.713483		-2.946137		-0.353660		1.256138		1.901817		0.033715		-0.002190		0.040215		
1.002278		-28.465465		1041.672193		382.630534		0.147011		0.000000		0.199718		-0.535291		19.587382		7.194304		109.940400		963.254357		352.636687		-0.214591		0.000000		0.215843		5.592671		49.001064		17.938923		0.203013		-0.148960		-1.523690		0.413053		1.262898		1.874398		0.032157		-0.015538		0.016276		-1.076715		-1.663223		-2.944652		-0.353673		1.256169		1.901830		0.033396		-0.000497		0.037833		
1.005333		-33.409107		1136.535673		364.690417		0.148263		0.000000		0.203309		-0.687553		23.389083		7.504547		124.577396		1057.593625		356.202427		-0.212206		0.000000		0.219621		6.161721		52.309849		17.618536		0.253652		-0.178153		-1.528260		0.413015		1.262897		1.874402		0.032442		-0.013505		0.016547		-1.109143		-1.618858		-2.944829		-0.353684		1.256193		1.901829		0.032937		0.000457		0.034793		
1.008389		-36.831093		1212.005923		339.257365		0.149466		0.000000		0.206867		-0.819241		26.958742		7.545793		135.182650		1138.362999		348.131719		-0.209516		0.000000		0.223974		6.400449		53.897682		16.483263		0.317954		-0.188979		-1.527242		0.412982		1.262895		1.874397		0.032301		-0.012360		0.017478		-1.137863		-1.584931		-2.950262		-0.353693		1.256211		1.901817		0.032338		0.000528		0.031414		
1.011444		-38.478048		1266.678201		313.099727		0.150454		0.000000		0.210097		-0.913850		30.083558		7.435970		141.230399		1204.530396		331.937039		-0.206846		0.000000		0.228658		6.314371		53.854022		14.841017		0.391006		-0.181953		-1.522773		0.412957		1.262892		1.874383		0.031808		-0.011956		0.018929		-1.148662		-1.563644		-2.962016		-0.353699		1.256222		1.901794		0.031598		-0.000365		0.028083		
1.014500		-38.347749		1299.881684		291.977589		0.151068		0.000000		0.212730		-0.962175		32.615042		7.325945		142.730209		1254.931888		311.776908		-0.204474		0.000000		0.233348		5.972190		52.509495		13.045527		0.467213		-0.161263		-1.518598		0.412940		1.262886		1.874362		0.031070		-0.011968		0.020705		-1.132421		-1.554331		-2.977928		-0.353703		1.256227		1.901764		0.030718		-0.002212		0.025195		
1.017556		-36.686271		1311.634219		279.669485		0.151183		0.000000		0.214532		-0.963925		34.463196		7.348298		140.172865		1288.201693		291.724997		-0.202594		0.000000		0.237681		5.480125		50.362431		11.405191		0.540423		-0.132922		-1.518356		0.412932		1.262879		1.874331		0.030197		-0.011974		0.022579		-1.087796		-1.553516		-2.992903		-0.353705		1.256225		1.901728		0.029719		-0.004896		0.023083		
